<?xml version="1.0" encoding="UTF-8" standalone="no"?> <svg width="24" height="24" viewBox="0 0 24 24" fill="none" xmlns="http://www.w3.org/2000/svg">
<path fill-rule="evenodd" clip-rule="evenodd" d="M10 4C9.44772 4 9 4.44772 9 5V6H15V5C15 4.44772 14.5523 4 14 4H10ZM17 6V5C17 3.34315 15.6569 2 14 2H10C8.34315 2 7 3.34315 7 5V6H3C1.34315 6 0 7.34315 0 9V14C0 14.7403 0.402199 15.3866 1 15.7324V19C1 20.6569 2.34315 22 4 22H20C21.6569 22 23 20.6569 23 19V15.7324C23.5978 15.3866 24 14.7403 24 14V9C24 7.34315 22.6569 6 21 6H17ZM21 16H15C15 17.1046 14.1046 18 13 18H11C9.89543 18 9 17.1046 9 16H3V19C3 19.5523 3.44772 20 4 20H20C20.5523 20 21 19.5523 21 19V16ZM9 14C9 12.8954 9.89543 12 11 12H13C14.1046 12 15 12.8954 15 14H22V9C22 8.44771 21.5523 8 21 8H3C2.44772 8 2 8.44772 2 9V14H9ZM13 14H11V16H13V14Z" fill="#293644"/>
</svg>
